<svg xmlns="http://www.w3.org/2000/svg" width="200" height="48"><path fill="#414141" d="M40 25c0 3-.6 5.6-1.6 8A19.3 19.3 0 0 1 20 45.2c-2.9 0-5.5-.5-8-1.5A18.6 18.6 0 0 1 1.5 33.1C.5 30.6 0 27.9 0 25c0-3 .5-5.7 1.5-8.1A19.3 19.3 0 0 1 20 5a20.4 20.4 0 0 1 14.2 5.6A20.8 20.8 0 0 1 39.9 25zm-4.2 0c0-2.2-.4-4.3-1-6.4A15 15 0 0 0 20 8.3c-2.5 0-4.7.5-6.7 1.4a15 15 0 0 0-8.1 9 18.9 18.9 0 0 0 3.1 18 15.3 15.3 0 0 0 11.7 5 15.7 15.7 0 0 0 11.6-5c1.3-1.5 2.4-3.3 3.1-5.3.7-2 1.1-4.1 1.1-6.4zm96 20.1c-3 0-5.3-.5-7.2-1.5a12.9 12.9 0 0 1-6.8-8.9 23 23 0 0 1-.6-5.2v-24c0-.3.2-.5.5-.5h3c.2 0 .4.2.4.5v23.6c0 1.6.2 3.1.6 4.6.4 1.5 1 2.8 1.8 4s2 2 3.3 2.8 3 1 5 1 3.7-.3 5-1 2.5-1.7 3.3-2.8c.9-1.2 1.5-2.5 1.8-4 .4-1.5.6-3 .6-4.6V5.5c0-.3.2-.5.5-.5h3c.2 0 .5.2.5.5v24c0 1.7-.2 3.4-.7 5.2a13.3 13.3 0 0 1-14 10.4zm63.8-33.6a9.2 9.2 0 0 0-7.4-3.2c-1 0-1.9.2-2.9.4-1 .3-1.8.8-2.6 1.4-.8.6-1.4 1.3-2 2.2s-.6 2-.6 3.2.2 2.2.7 3c.4.8 1 1.4 1.8 2 .8.6 1.7 1 2.6 1.4a91.6 91.6 0 0 0 7.1 2.4c1.4.5 2.6 1.2 3.7 2 1 .8 2 1.8 2.6 3 .7 1.3 1 2.9 1 4.8s-.4 3.5-1 4.9a11.8 11.8 0 0 1-6.8 5.4 16 16 0 0 1-14.2-2.5l-1.7-1.6c-.5-.6-.8-.8 0-1.5l1.8-1.2c1-.6 1-.4 1.5.2a9.8 9.8 0 0 0 8 3.9c1 0 2-.1 3-.5a8.1 8.1 0 0 0 4.7-3.7c.5-.9.8-2 .8-3.2 0-1.3-.3-2.4-.8-3.3a6.9 6.9 0 0 0-2-2.2 13 13 0 0 0-3-1.5 128.4 128.4 0 0 0-7.2-2.5c-1.2-.5-2.3-1.1-3.3-2-1-.7-1.8-1.7-2.3-3a9.7 9.7 0 0 1-1-4.3 9.7 9.7 0 0 1 4-8 12 12 0 0 1 4-1.9 16.1 16.1 0 0 1 10.8.8l2.2 1.3 1.1 1c.8.8.8 1 0 1.7l-1.3 1c-.8.7-1.2.3-1.3.1zM86 19.3a1.9 1.9 0 1 1 0-3.7 1.9 1.9 0 0 1 0 3.7zm-20.3.1a1.9 1.9 0 1 1 0-3.7 1.9 1.9 0 0 1 0 3.7z"/><path fill="#414141" d="M73.3 10h.4l.2.3v18.9s4-4.9 4-8.4V10.3c0-.1.2-.3.4-.3h.1C90 8.9 98.6.7 97.6 0h-.2c-1.2 0-4 5.4-21.5 5.4C58.3 5.4 55.6.1 54.4 0h-.2c-1 .7 7.6 8.8 19 10zm13.4 37c-.7 0-1-1.5-1-2.7s.3-1.2 1-1.2 1 .1 1 1.2-.4 2.8-1 2.8zM84 47c-.6 0-1-1.5-1-2.7s.4-1.2 1-1.2 1 .1 1 1.2-.3 2.8-1 2.8zm-2.6 0c-.6 0-1-1.5-1-2.7s.4-1.2 1-1.2 1 .1 1 1.2-.3 2.8-1 2.8zm-11.1 0c-.6 0-1-1.5-1-2.7s.4-1.2 1-1.2 1 .1 1 1.2-.3 2.8-1 2.8zm-2.6 0c-.6 0-1-1.5-1-2.7s.4-1.2 1-1.2 1 .1 1 1.2-.3 2.8-1 2.8zm-2.6 0c-.6 0-1-1.5-1-2.7s.4-1.2 1-1.2 1 .1 1 1.2-.4 2.8-1 2.8z"/></svg>