<svg xmlns="http://www.w3.org/2000/svg" width="40" height="40"><path fill="#7B7B7B" fill-rule="evenodd" d="M19.8 0a19.8 19.8 0 1 0 0 39.6 19.8 19.8 0 0 0 0-39.6zm10.04 21.94c.92.9 1.9 1.75 2.73 2.74.36.44.7.9.97 1.41.38.73.04 1.53-.61 1.57h-4.06a3.13 3.13 0 0 1-2.58-1.05c-.56-.57-1.08-1.18-1.62-1.77a3.87 3.87 0 0 0-.73-.65c-.56-.36-1.04-.25-1.36.33-.32.58-.4 1.24-.42 1.89-.05.96-.33 1.2-1.3 1.25-2.04.1-4-.21-5.8-1.25-1.6-.91-2.83-2.2-3.9-3.66A49.27 49.27 0 0 1 6 13.6c-.32-.72-.08-1.1.71-1.12 1.33-.03 2.65-.03 3.98 0 .53 0 .89.31 1.1.82.71 1.76 1.59 3.44 2.69 4.99.3.41.6.83 1.02 1.12.47.32.83.21 1.05-.31.14-.33.2-.7.23-1.05.1-1.22.12-2.44-.07-3.66-.1-.77-.54-1.26-1.3-1.4-.38-.08-.33-.22-.14-.44.33-.38.63-.62 1.25-.62h4.58c.72.14.88.47.98 1.2v5.08c0 .29.14 1.12.65 1.3.4.14.67-.19.92-.44a15.78 15.78 0 0 0 2.58-3.97c.3-.63.58-1.28.83-1.93.2-.48.5-.72 1.04-.7h4.41c.13 0 .27 0 .4.02.74.13.94.45.71 1.17-.36 1.14-1.06 2.09-1.75 3.04-.74 1.02-1.53 2-2.26 3.03-.67.93-.61 1.4.22 2.22z"/></svg>